<?xml version="1.0" standalone="no"?>
<!DOCTYPE svg PUBLIC "-//W3C//DTD SVG 20010904//EN"
 "http://www.w3.org/TR/2001/REC-SVG-20010904/DTD/svg10.dtd">
<svg version="1.0" xmlns="http://www.w3.org/2000/svg"
 width="81.000000pt" height="81.000000pt" viewBox="0 0 81.000000 81.000000"
 preserveAspectRatio="xMidYMid meet">
<metadata>
Created by potrace 1.11, written by Peter Selinger 2001-2013
</metadata>
<g transform="translate(0.000000,81.000000) scale(0.100000,-0.100000)"
fill="#000000" stroke="none">
<path d="M270 740 c-63 -37 -119 -72 -125 -77 -5 -5 -14 -11 -20 -12 -30 -10
-55 -25 -55 -33 0 -5 -5 -6 -10 -3 -7 4 -10 -65 -10 -199 0 -202 0 -206 22
-219 68 -42 124 -71 131 -69 4 1 7 -2 7 -6 0 -8 51 -36 59 -32 2 1 7 -3 10 -8
3 -5 31 -23 61 -40 l55 -31 50 29 c28 17 69 40 93 52 23 12 42 26 42 31 0 4 4
6 9 3 5 -3 14 1 21 9 7 8 16 12 21 9 5 -3 9 0 9 6 0 6 10 15 23 20 27 11 85
50 74 50 -4 0 -3 9 3 19 7 14 7 20 -2 23 -8 3 -8 9 0 25 6 11 8 23 5 27 -10 9
-10 68 -1 88 5 10 3 18 -4 20 -8 3 -8 9 0 25 6 11 8 23 5 27 -4 3 -7 35 -7 70
-1 36 -3 67 -6 69 -3 3 -45 29 -95 58 -49 29 -93 57 -97 63 -4 6 -8 7 -8 3 0
-11 -60 25 -60 36 0 4 -5 5 -10 2 -6 -3 -13 0 -16 8 -2 7 -10 14 -17 14 -7 0
-19 3 -27 6 -8 3 -67 -26 -130 -63z m140 -12 c0 -6 3 -8 6 -5 4 4 19 -2 34
-13 15 -11 39 -24 54 -30 14 -5 26 -14 26 -20 0 -5 4 -9 8 -7 4 1 37 -15 74
-37 l66 -38 0 -50 c1 -28 -2 -47 -5 -44 -3 3 -12 1 -20 -5 -7 -6 -14 -9 -14
-5 -1 3 -3 11 -4 16 -1 6 -3 24 -4 40 0 17 -6 30 -12 30 -6 0 -24 9 -40 21
-16 11 -29 17 -29 12 0 -4 -5 0 -11 10 -5 9 -14 17 -19 17 -6 0 -143 74 -159
86 -2 2 2 10 9 19 15 18 40 20 40 3z m-90 -63 c8 -5 18 -10 22 -10 4 0 16 -7
26 -15 39 -32 129 -80 136 -73 3 4 6 -2 6 -11 0 -12 5 -16 15 -12 8 3 15 1 15
-4 0 -6 7 -10 15 -10 9 0 15 -9 16 -22 0 -13 2 -33 5 -44 4 -22 -10 -40 -35
-46 -10 -2 -15 8 -16 32 -3 49 -4 54 -11 47 -3 -3 -14 3 -25 14 -11 11 -24 17
-29 14 -6 -4 -10 -3 -10 2 0 4 -21 19 -47 33 -27 14 -54 30 -61 37 -13 12 -27
17 -44 14 -5 0 -8 6 -8 14 0 8 -3 14 -7 14 -33 -5 -43 20 -13 32 19 8 31 6 50
-6z m-116 -61 c9 -8 16 -18 16 -21 0 -4 -3 -4 -6 0 -6 5 -14 0 -47 -29 -8 -7
-12 -57 -12 -167 0 -158 -7 -186 -36 -151 -15 18 -19 144 -4 144 6 0 7 3 0 8
-11 8 -13 101 -2 119 4 6 3 13 -1 15 -17 6 8 63 35 80 35 22 38 22 57 2z m102
-54 l27 -11 -36 -24 -36 -25 0 -156 c-1 -86 -3 -160 -6 -165 -4 -5 -14 -4 -24
3 -15 9 -18 25 -19 90 -1 43 -4 83 -7 88 -3 6 -3 10 2 10 4 0 7 35 6 77 -2 77
-2 78 30 100 18 12 33 22 34 22 1 1 14 -4 29 -9z m134 -75 c0 4 7 0 15 -9 8
-8 15 -32 15 -54 0 -35 -4 -43 -35 -62 -31 -19 -40 -21 -65 -10 -40 17 -54 36
-55 77 0 26 5 39 25 52 38 27 53 30 78 15 12 -8 22 -12 22 -9z m238 -91 c-3
-19 -137 -106 -150 -98 -5 3 -8 0 -8 -6 0 -6 -8 -14 -17 -17 -10 -4 -35 -17
-55 -30 -21 -13 -48 -23 -61 -23 -25 0 -86 52 -68 58 5 2 8 9 5 17 -4 9 6 8
34 -6 38 -19 40 -19 72 -2 19 10 39 21 44 26 39 28 176 104 181 99 3 -3 5 1 5
8 0 10 3 11 11 3 6 -6 9 -19 7 -29z m-3 -116 c-4 -37 -4 -38 -19 -38 -7 0 -19
-7 -26 -15 -7 -8 -16 -12 -21 -9 -5 3 -9 0 -9 -6 0 -6 -4 -8 -10 -5 -5 3 -10
2 -10 -3 0 -8 -18 -19 -137 -83 -50 -26 -54 -27 -83 -13 -43 22 -56 50 -30 64
14 8 20 8 20 0 0 -6 5 -8 10 -5 6 3 10 1 10 -4 0 -17 32 -13 68 9 17 11 32 16
32 12 0 -4 4 -2 8 5 8 13 172 111 188 112 6 1 10 -9 9 -21z"/>
</g>
</svg>
